<svg width="20" height="18" viewBox="0 0 20 18" fill="none" xmlns="http://www.w3.org/2000/svg">
<path d="M7.76069 11.3667C7.18569 10.7927 6.83569 10.0127 6.83569 9.13768C6.83569 7.38468 8.24769 5.97168 9.99969 5.97168C10.8667 5.97168 11.6647 6.32268 12.2297 6.89668" stroke="#86969B" stroke-width="1.5" stroke-linecap="round" stroke-linejoin="round"/>
<path d="M13.1049 9.69873C12.8729 10.9887 11.8569 12.0067 10.5679 12.2407" stroke="#86969B" stroke-width="1.5" stroke-linecap="round" stroke-linejoin="round"/>
<path d="M4.65463 14.472C3.06763 13.226 1.72363 11.406 0.749634 9.13698C1.73363 6.85798 3.08663 5.02798 4.68363 3.77198C6.27063 2.51598 8.10163 1.83398 9.99963 1.83398C11.9086 1.83398 13.7386 2.52598 15.3356 3.79098" stroke="#86969B" stroke-width="1.5" stroke-linecap="round" stroke-linejoin="round"/>
<path d="M17.4477 5.99072C18.1357 6.90472 18.7407 7.95972 19.2497 9.13672C17.2827 13.6937 13.8067 16.4387 9.99965 16.4387C9.13665 16.4387 8.28565 16.2987 7.46765 16.0257" stroke="#86969B" stroke-width="1.5" stroke-linecap="round" stroke-linejoin="round"/>
<path d="M17.887 1.24951L2.11304 17.0235" stroke="#86969B" stroke-width="1.5" stroke-linecap="round" stroke-linejoin="round"/>
</svg>
